HIERARCHY
ROOT Hips
{
	OFFSET 0.00000 0.00000 0.00000
	CHANNELS 6 Xposition Yposition Zposition Zrotation Yrotation Xrotation 
	JOINT LHipJoint
	{
		OFFSET 0 0 0
		CHANNELS 3 Zrotation Yrotation Xrotation
		JOINT LeftHip
		{
			OFFSET 1.54859 -1.61379 0.86856
			CHANNELS 3 Zrotation Yrotation Xrotation
			JOINT LeftKnee
			{
				OFFSET 2.25087 -6.18423 0.00000
				CHANNELS 3 Zrotation Yrotation Xrotation
				JOINT LeftAnkle
				{
					OFFSET 2.40328 -6.60297 0.00000
					CHANNELS 3 Zrotation Yrotation Xrotation
					JOINT LeftToe
					{
						OFFSET 0.17435 -0.47901 2.02453
						CHANNELS 3 Zrotation Yrotation Xrotation
						End Site
						{
							OFFSET 0.00000 -0.00000 1.04844
						}
					}
				}
			}
		}
	}
	JOINT RHipJoint
	{
		OFFSET 0 0 0
		CHANNELS 3 Zrotation Yrotation Xrotation
		JOINT RightHip
		{
			OFFSET -1.54669 -1.61379 0.86856
			CHANNELS 3 Zrotation Yrotation Xrotation
			JOINT RightKnee
			{
				OFFSET -2.28132 -6.26789 0.00000
				CHANNELS 3 Zrotation Yrotation Xrotation
				JOINT RightAnkle
				{
					OFFSET -2.51636 -6.91365 0.00000
					CHANNELS 3 Zrotation Yrotation Xrotation
					JOINT RightToe
					{
						OFFSET -0.15124 -0.41552 2.21090
						CHANNELS 3 Zrotation Yrotation Xrotation
						End Site
						{
							OFFSET -0.00000 -0.00000 1.13399
						}
					}
				}
			}
		}
	}
	JOINT lowerback
	{
		OFFSET 0 0 0
		CHANNELS 3 Zrotation Yrotation Xrotation
		JOINT Chest
		{
			OFFSET -0.04287 2.26161 -0.25690
			CHANNELS 3 Zrotation Yrotation Xrotation
			JOINT Chest2
			{
				OFFSET 0.02248 2.28395 -0.10140
				CHANNELS 3 Zrotation Yrotation Xrotation
				JOINT lowerneck
				{
					OFFSET 0 0 0
					CHANNELS 3 Zrotation Yrotation Xrotation
					JOINT Neck
					{
						OFFSET -0.11644 1.38496 0.11345
						CHANNELS 3 Zrotation Yrotation Xrotation
						JOINT Head
						{
							OFFSET 0.29383 1.36600 0.06642
							CHANNELS 3 Zrotation Yrotation Xrotation
							End Site
							{
								OFFSET 0.11075 1.41395 -0.00294
							}
						}
					}
				}
				JOINT LeftCollar
				{
					OFFSET 0 0 0
					CHANNELS 3 Zrotation Yrotation Xrotation
					JOINT LeftShoulder
					{
						OFFSET 3.51628 0.59542 -0.30346
CHANNELS 3 Zrotation Xrotation Yrotation
						JOINT LeftElbow
						{
OFFSET 0 -4.764050 0.000000
CHANNELS 3 Zrotation Xrotation Yrotation
							JOINT LeftWrist
							{
OFFSET 0 -3.137590 -0.000000
CHANNELS 3 Zrotation Xrotation Yrotation
								JOINT lhand
								{
									OFFSET 0 0 0
CHANNELS 3 Zrotation Xrotation Yrotation
									JOINT LFingers
									{
OFFSET 0 -0.732260 -0.000000
CHANNELS 3 Zrotation Xrotation Yrotation
										End Site
										{
OFFSET 0 -0.590370 -0.000000
										}
									}
								}
								JOINT LThumb
								{
OFFSET 0 0.000000 0.000000
CHANNELS 3 Zrotation Xrotation Yrotation
									End Site
									{
OFFSET 0 -0.599380 0.599380
									}
								}
							}
						}
					}
				}
				JOINT RightCollar
				{
					OFFSET 0 0 0
					CHANNELS 3 Zrotation Yrotation Xrotation
					JOINT RightShoulder
					{
						OFFSET -3.30990 0.84213 -0.36430
CHANNELS 3 Zrotation Xrotation Yrotation
						JOINT RightElbow
						{
OFFSET 0 -5.101610 -0.000000
CHANNELS 3 Zrotation Xrotation Yrotation
							JOINT RightWrist
							{
OFFSET 0 -3.232670 -0.000000
CHANNELS 3 Zrotation Xrotation Yrotation
								JOINT rhand
								{
									OFFSET 0 0 0
CHANNELS 3 Zrotation Xrotation Yrotation
									JOINT RFingers
									{
OFFSET 0 -0.702000 -0.000000
CHANNELS 3 Zrotation Xrotation Yrotation
										End Site
										{
OFFSET 0 -0.565970 -0.000000
										}
									}
								}
								JOINT RThumb
								{
OFFSET 0 0.000000 0.000000
CHANNELS 3 Zrotation Xrotation Yrotation
									End Site
									{
OFFSET 0 -0.574610 0.574610
									}
								}
							}
						}
					}
				}
			}
		}
	}
}
MOTION
Frames: 6
Frame Time: 0.008333333333333333
-15.577372 13.843417 -1.291555 -193.471174 22.455778 -174.188830 0.000000 0.000000 0.000000 2.218286 9.772723 -18.100233 3.919327 12.033798 35.877109 -0.352554 12.187606 2.425781 4.765675 -13.114075 -39.798423 0.000000 0.000000 0.000000 11.709014 -2.184582 -58.171430 -15.850022 -19.581801 77.784547 2.265363 -25.795891 -5.725683 -6.196476 14.615660 -45.764470 -9.029644 -0.984498 35.318269 -6.680560 -2.014111 9.478343 -1.772141 0.388471 -6.974062 -14.161801 -4.149175 -2.440990 20.299003 -0.963567 -21.245827 9.160269 0.196488 -5.441281 0.000000 0.000000 0.000000 23.489879 13.466640 -7.645189 75.482946 -59.188470 47.462135 47.343969 -11.646371 -13.705745 0.000000 0.000000 0.000000 -7.125000 0.000000 0.000000 19.739475 48.732573 -1.886040 0.000000 0.000000 0.000000 -29.275227 -14.926570 -0.402909 -94.504855 -59.912986 -63.899926 -66.245769 -85.546734 -42.023799 0.000000 0.000000 0.000000 7.125000 0.000000 0.000000 -13.459434 -34.692909 -19.000711
-15.216764 13.938542 -1.273901 -193.123534 21.552797 -174.167117 0.000000 0.000000 0.000000 1.623764 11.612604 -22.176898 4.980387 13.345509 40.704937 -0.191691 9.123338 1.886280 4.680630 -13.014818 -39.423941 0.000000 0.000000 0.000000 13.498792 -2.647274 -57.076438 -15.681921 -19.546909 77.282575 2.128024 -25.026013 -5.822473 -5.965972 14.394705 -44.843901 -9.360252 -0.919371 35.311640 -6.268800 -1.957597 9.601860 -1.205893 0.410028 -6.735648 -14.476944 -4.154914 -2.139655 20.685213 -1.004014 -21.128512 9.362008 0.150665 -5.433888 0.000000 0.000000 0.000000 23.909159 12.929537 -9.636489 75.469869 -59.186983 47.450839 46.906559 -11.468854 -13.478491 0.000000 0.000000 0.000000 -7.125000 0.000000 0.000000 19.210693 48.334119 -1.636817 0.000000 0.000000 0.000000 -30.596296 -14.742542 -1.876225 -98.298217 -59.730854 -67.179623 -66.379739 -87.199182 -41.948342 0.000000 0.000000 0.000000 7.125000 0.000000 0.000000 -13.562279 -34.731055 -19.152094
-14.871965 14.029757 -1.244900 -192.583866 20.362976 -173.892776 0.000000 0.000000 0.000000 0.834791 12.895233 -26.654288 6.212263 14.625586 45.817470 -0.152097 7.626191 0.673020 4.461558 -12.750073 -38.440633 0.000000 0.000000 0.000000 15.393125 -3.456211 -56.530078 -15.555373 -19.519564 76.903970 1.868544 -23.492557 -6.057524 -5.821384 14.252999 -44.260578 -9.219342 -1.045107 35.367416 -5.877728 -2.016138 9.695678 -0.841111 0.373860 -6.642717 -14.685621 -4.227862 -1.707634 21.255129 -1.070416 -21.214313 9.625463 0.079177 -5.501121 0.000000 0.000000 0.000000 24.585698 12.073688 -11.802400 75.087183 -59.142764 47.122239 46.367437 -11.373637 -13.402266 0.000000 0.000000 0.000000 -7.125000 0.000000 0.000000 18.622454 48.116835 -1.480156 0.000000 0.000000 0.000000 -31.537099 -14.278350 -3.556245 -101.954903 -59.450510 -70.333957 -66.499677 -88.779018 -42.373583 0.000000 0.000000 0.000000 7.125000 0.000000 0.000000 -13.384191 -35.182417 -18.915208
-14.516324 14.114310 -1.211007 -191.899472 19.163993 -173.682421 0.000000 0.000000 0.000000 -0.035182 13.943903 -30.990982 7.569480 15.786806 50.985941 -0.169051 7.539514 -0.641358 4.486654 -12.780922 -38.554454 0.000000 0.000000 0.000000 17.466970 -4.558093 -56.220329 -15.474773 -19.501810 76.662909 1.533809 -21.355572 -6.134315 -5.849050 14.280499 -44.372944 -9.166436 -1.131960 35.639102 -5.492134 -2.052892 9.806755 -0.449647 0.360767 -6.600990 -14.760963 -4.310917 -1.471276 22.115500 -1.053412 -21.206278 9.963792 0.045283 -5.511845 0.000000 0.000000 0.000000 25.447152 10.903122 -13.865102 74.465129 -59.068087 46.588487 46.035368 -11.195825 -13.378324 0.000000 0.000000 0.000000 -7.125000 0.000000 0.000000 18.268478 48.014924 -1.402749 0.000000 0.000000 0.000000 -32.038698 -13.892941 -5.389392 -105.218947 -59.105169 -73.140341 -66.432310 -89.841958 -43.030599 0.000000 0.000000 0.000000 7.125000 0.000000 0.000000 -12.986907 -35.680167 -18.360947
-14.155081 14.211420 -1.183658 -191.159085 18.101799 -173.357923 0.000000 0.000000 0.000000 -1.164807 14.794941 -35.209974 8.960588 16.770415 55.936163 -0.213592 8.208754 -2.301780 4.538523 -12.841382 -38.782698 0.000000 0.000000 0.000000 19.517473 -5.655844 -56.118558 -15.427080 -19.491050 76.519823 1.172809 -18.732270 -6.988796 -5.856697 14.287888 -44.403555 -9.164800 -1.119487 35.718156 -5.054848 -1.961832 9.943670 -0.019489 0.396304 -6.461548 -14.678855 -4.356760 -1.140861 22.866962 -0.956860 -21.367812 10.246957 0.047338 -5.615283 0.000000 0.000000 0.000000 26.315482 9.545129 -16.067471 73.970284 -59.006420 46.164160 45.907615 -10.787845 -13.492245 0.000000 0.000000 0.000000 -7.125000 0.000000 0.000000 18.162433 48.137779 -1.450644 0.000000 0.000000 0.000000 -32.583102 -13.560629 -7.649551 -107.320796 -58.832896 -74.941259 -66.541729 -90.859930 -43.508248 0.000000 0.000000 0.000000 7.125000 0.000000 0.000000 -12.765033 -36.155694 -18.059227
-13.790714 14.312577 -1.155377 -190.278673 17.165411 -172.934017 0.000000 0.000000 0.000000 -2.385802 15.573976 -39.314886 10.340375 17.584547 60.603848 -0.234976 8.640114 -4.209348 4.013126 -12.169099 -36.345266 0.000000 0.000000 0.000000 21.587701 -6.689076 -56.146269 -15.420766 -19.489649 76.500963 0.783514 -15.610272 -8.525665 -5.713196 14.143870 -43.818215 -9.148321 -1.029795 35.732682 -4.548102 -1.763936 10.090232 0.440042 0.473892 -6.295481 -14.499023 -4.460535 -0.770608 23.586902 -0.893414 -21.721721 10.516126 0.033434 -5.781606 0.000000 0.000000 0.000000 27.096155 8.134806 -18.214464 73.620677 -58.961568 45.864580 45.757082 -10.683898 -13.382717 0.000000 0.000000 0.000000 -7.125000 0.000000 0.000000 17.979582 47.962431 -1.356125 0.000000 0.000000 0.000000 -33.042375 -13.159957 -9.549707 -109.247059 -58.550279 -76.587079 -66.328131 -92.090332 -43.367987 0.000000 0.000000 0.000000 7.125000 0.000000 0.000000 -12.749211 -35.881061 -18.024849
